<svg xmlns="http://www.w3.org/2000/svg" viewBox="0 0 70 70">
    <path d="M35 69.2308C44.0539 69.2308 52.7371 65.5838 59.1392 59.0922C65.5413 52.6005 69.1379 43.796 69.1379 34.6154C69.1379 25.4348 65.5413 16.6303 59.1392 10.1386C52.7371 3.64697 44.0539 0 35 0C25.9461 0 17.2629 3.64697 10.8608 10.1386C4.45873 16.6303 0.862061 25.4348 0.862061 34.6154C0.862061 43.796 4.45873 52.6005 10.8608 59.0922C17.2629 65.5838 25.9461 69.2308 35 69.2308Z" fill="#219653"/>
    <path d="M50.3745 28.0506L33.3055 45.3583C32.052 46.6294 30.0251 46.6294 28.7849 45.3583L24.5177 41.0314L20.2504 36.7045C18.9969 35.4334 18.9969 33.3782 20.2504 32.1206C21.5039 30.8631 23.5309 30.8496 24.771 32.1206L31.0385 38.4758L45.8405 23.4533C47.094 22.1822 49.121 22.1822 50.3612 23.4533C51.6013 24.7243 51.6147 26.7796 50.3612 28.0371L50.3745 28.0506Z" fill="white"/>
</svg>
