<svg xmlns="http://www.w3.org/2000/svg" viewBox="0 0 70 70">
    <path d="M38.0822 5.7717L38.083 5.77318L65.7685 59.6794L65.7693 59.681C66.4832 61.0668 66.4853 62.8031 65.7873 64.1963C65.0976 65.573 63.8738 66.3125 62.6808 66.3125H7.30972C6.11676 66.3125 4.89296 65.573 4.20319 64.1963C3.50741 62.8075 3.51742 61.0551 4.22279 59.678L31.9076 5.77318L31.9083 5.7717C32.6091 4.40359 33.81 3.6875 34.9953 3.6875C36.1805 3.6875 37.3815 4.4036 38.0822 5.7717Z" fill="#F2BC00" stroke="#302C2D" stroke-width="3"/>
    <path d="M34.7266 20.7813C32.9022 20.7813 31.6504 22.3486 31.6504 24.2969V40.7031C31.6504 42.6514 33.0219 44.2187 34.7266 44.2187C36.4313 44.2187 37.8027 42.6514 37.8027 40.7031V24.2969C37.8027 22.3486 36.5509 20.7812 34.7266 20.7813ZM38.8281 53.5938C38.8281 52.3505 38.396 51.1583 37.6268 50.2792C36.8576 49.4001 36.7088 48.9062 34.7266 48.9062C33.6388 48.9062 32.5955 49.4001 31.8263 50.2792C31.0571 51.1583 30.625 52.3505 30.625 53.5938C30.625 54.837 31.0571 56.0292 31.8263 56.9083C32.5955 57.7874 33.6388 58.2812 34.7266 58.2812C35.8144 58.2812 36.8576 57.7874 37.6268 56.9083C38.396 56.0292 38.8281 54.837 38.8281 53.5938Z" fill="#302C2D"/>
    <path d="M34.7266 20.7813C32.9022 20.7813 31.6504 22.3486 31.6504 24.2969V40.7031C31.6504 42.6514 33.0219 44.2187 34.7266 44.2187C36.4313 44.2187 37.8027 42.6514 37.8027 40.7031V24.2969C37.8027 22.3486 36.5509 20.7812 34.7266 20.7813Z" fill="#302C2D"/>
    <path d="M38.8281 53.5938C38.8281 52.3505 38.396 51.1583 37.6268 50.2792C36.8576 49.4001 36.7088 48.9062 34.7266 48.9062C33.6388 48.9062 32.5955 49.4001 31.8263 50.2792C31.0571 51.1583 30.625 52.3505 30.625 53.5938C30.625 54.837 31.0571 56.0292 31.8263 56.9083C32.5955 57.7874 33.6388 58.2812 34.7266 58.2812C35.8144 58.2812 36.8576 57.7874 37.6268 56.9083C38.396 56.0292 38.8281 54.837 38.8281 53.5938Z" fill="#302C2D"/>
    <path d="M34.7266 20.7813C32.9022 20.7813 31.6504 22.3486 31.6504 24.2969V40.7031C31.6504 42.6514 33.0219 44.2187 34.7266 44.2187C36.4313 44.2187 37.8027 42.6514 37.8027 40.7031V24.2969C37.8027 22.3486 36.5509 20.7812 34.7266 20.7813ZM38.8281 53.5938C38.8281 52.3505 38.396 51.1583 37.6268 50.2792C36.8576 49.4001 36.7088 48.9062 34.7266 48.9062C33.6388 48.9062 32.5955 49.4001 31.8263 50.2792C31.0571 51.1583 30.625 52.3505 30.625 53.5938C30.625 54.837 31.0571 56.0292 31.8263 56.9083C32.5955 57.7874 33.6388 58.2812 34.7266 58.2812C35.8144 58.2812 36.8576 57.7874 37.6268 56.9083C38.396 56.0292 38.8281 54.837 38.8281 53.5938Z" stroke="black"/>
</svg>